# xmcd
#
# Track frame offsets: 
#        150
#        11257
#        20872
#        31265
#        45460
#        58180
#        64445
#        75372
#        86952
#        109512
#        128377
#        138907
#        149362
#        160897
#        184115
#        200440
#        211000
#
# Disc length: 2951 seconds
#
# Revision: 2
# Processed by: cddbd v1.5.2PL0 Copyright (c) Steve Scherf et al.
# Submitted via: ExactAudioCopy v0.99pb3
#
DISCID=e10b8511
DTITLE=Eric Clapton - West Coast Idea
DYEAR=1999
DGENRE=Blues
TTITLE0=Snake Drive
TTITLE1=Tribute To Elmore
TTITLE2=West Coast Idea
TTITLE3=Dragging My Tail (With Jimmy Page)
TTITLE4=Freight Loader (With Jimmy Page)
TTITLE5=Choker (With Jimmy Page)
TTITLE6=Miles Road
TTITLE7=Pounds And Stomps (With The Yardbirds)
TTITLE8=The First Time I Met The Blues
TTITLE9=Stormy Monday Blues
TTITLE10=I Wish You Would (With The Yardbirds)
TTITLE11=A Certain Girl (With The Yardbirds)
TTITLE12=Got To Hurry (With The Yardbirds)
TTITLE13=Five Long Years (With The Yardbirds)
TTITLE14=Louise (With The Yardbirds)
TTITLE15=Honey In Your Hips (With The Yardbirds)
TTITLE16=Putty In Your Hands (With The Yardbirds)
EXTD=ID3G: 0
EXTT0=
EXTT1=
EXTT2=
EXTT3=
EXTT4=
EXTT5=
EXTT6=
EXTT7=
EXTT8=
EXTT9=
EXTT10=
EXTT11=
EXTT12=
EXTT13=
EXTT14=
EXTT15=
EXTT16=
PLAYORDER=
